<mxfile host="Electron" modified="2024-07-08T11:08:25.477Z" agent="Mozilla/5.0 (Macintosh; Intel Mac OS X 10_15_7) AppleWebKit/537.36 (KHTML, like Gecko) draw.io/24.6.4 Chrome/124.0.6367.207 Electron/30.0.6 Safari/537.36" etag="3Yhbfjd6GpwtJcazoTIT" version="24.6.4" type="device">
  <diagram id="R2lEEEUBdFMjLlhIrx00" name="Page-1">
    <mxGraphModel dx="1114" dy="776" grid="1" gridSize="10" guides="1" tooltips="1" connect="1" arrows="1" fold="1" page="1" pageScale="1" pageWidth="850" pageHeight="1100" math="0" shadow="0" extFonts="Permanent Marker^https://fonts.googleapis.com/css?family=Permanent+Marker">
      <root>
        <mxCell id="0" />
        <mxCell id="1" parent="0" />
        <mxCell id="C-vyLk0tnHw3VtMMgP7b-1" value="" style="edgeStyle=entityRelationEdgeStyle;endArrow=ERzeroToMany;startArrow=ERone;endFill=1;startFill=0;exitX=1;exitY=0.25;exitDx=0;exitDy=0;entryX=0;entryY=0.5;entryDx=0;entryDy=0;" parent="1" source="dhCN25a__iqnF_LbxJeF-18" target="dhCN25a__iqnF_LbxJeF-31" edge="1">
          <mxGeometry width="100" height="100" relative="1" as="geometry">
            <mxPoint x="240" y="140" as="sourcePoint" />
            <mxPoint x="410" y="190" as="targetPoint" />
            <Array as="points">
              <mxPoint x="420" y="180" />
            </Array>
          </mxGeometry>
        </mxCell>
        <mxCell id="dhCN25a__iqnF_LbxJeF-18" value="USER" style="shape=table;childLayout=tableLayout;startSize=40;collapsible=0;recursiveResize=0;expand=0;" vertex="1" parent="1">
          <mxGeometry x="10" y="70" width="160" height="260" as="geometry" />
        </mxCell>
        <mxCell id="dhCN25a__iqnF_LbxJeF-19" value="" style="shape=tableRow;horizontal=0;swimlaneHead=0;swimlaneBody=0;top=0;left=0;strokeColor=inherit;bottom=0;right=0;dropTarget=0;fontStyle=0;fillColor=none;points=[[0,0.5],[1,0.5]];portConstraint=eastwest;startSize=0;collapsible=0;recursiveResize=0;expand=0;" vertex="1" parent="dhCN25a__iqnF_LbxJeF-18">
          <mxGeometry y="40" width="160" height="60" as="geometry" />
        </mxCell>
        <mxCell id="dhCN25a__iqnF_LbxJeF-20" value="" style="swimlane;swimlaneHead=0;swimlaneBody=0;fontStyle=0;strokeColor=inherit;connectable=0;fillColor=none;startSize=0;collapsible=0;recursiveResize=0;expand=0;" vertex="1" parent="dhCN25a__iqnF_LbxJeF-19">
          <mxGeometry width="160" height="60" as="geometry">
            <mxRectangle width="160" height="60" as="alternateBounds" />
          </mxGeometry>
        </mxCell>
        <mxCell id="dhCN25a__iqnF_LbxJeF-27" value="ID" style="text;html=1;align=center;verticalAlign=middle;resizable=0;points=[];autosize=1;strokeColor=none;fillColor=none;" vertex="1" parent="dhCN25a__iqnF_LbxJeF-20">
          <mxGeometry x="60" y="15" width="40" height="30" as="geometry" />
        </mxCell>
        <mxCell id="dhCN25a__iqnF_LbxJeF-21" value="" style="shape=tableRow;horizontal=0;swimlaneHead=0;swimlaneBody=0;top=0;left=0;strokeColor=inherit;bottom=0;right=0;dropTarget=0;fontStyle=0;fillColor=none;points=[[0,0.5],[1,0.5]];portConstraint=eastwest;startSize=0;collapsible=0;recursiveResize=0;expand=0;" vertex="1" parent="dhCN25a__iqnF_LbxJeF-18">
          <mxGeometry y="100" width="160" height="60" as="geometry" />
        </mxCell>
        <mxCell id="dhCN25a__iqnF_LbxJeF-22" value="" style="swimlane;swimlaneHead=0;swimlaneBody=0;fontStyle=0;connectable=0;strokeColor=inherit;fillColor=none;startSize=0;collapsible=0;recursiveResize=0;expand=0;" vertex="1" parent="dhCN25a__iqnF_LbxJeF-21">
          <mxGeometry width="160" height="60" as="geometry">
            <mxRectangle width="160" height="60" as="alternateBounds" />
          </mxGeometry>
        </mxCell>
        <mxCell id="dhCN25a__iqnF_LbxJeF-28" value="name" style="text;html=1;align=center;verticalAlign=middle;resizable=0;points=[];autosize=1;strokeColor=none;fillColor=none;" vertex="1" parent="dhCN25a__iqnF_LbxJeF-22">
          <mxGeometry x="55" y="15" width="50" height="30" as="geometry" />
        </mxCell>
        <mxCell id="dhCN25a__iqnF_LbxJeF-23" value="" style="shape=tableRow;horizontal=0;swimlaneHead=0;swimlaneBody=0;top=0;left=0;strokeColor=inherit;bottom=0;right=0;dropTarget=0;fontStyle=0;fillColor=none;points=[[0,0.5],[1,0.5]];portConstraint=eastwest;startSize=0;collapsible=0;recursiveResize=0;expand=0;" vertex="1" parent="dhCN25a__iqnF_LbxJeF-18">
          <mxGeometry y="160" width="160" height="50" as="geometry" />
        </mxCell>
        <mxCell id="dhCN25a__iqnF_LbxJeF-24" value="" style="swimlane;swimlaneHead=0;swimlaneBody=0;fontStyle=0;connectable=0;strokeColor=inherit;fillColor=none;startSize=0;collapsible=0;recursiveResize=0;expand=0;" vertex="1" parent="dhCN25a__iqnF_LbxJeF-23">
          <mxGeometry width="160" height="50" as="geometry">
            <mxRectangle width="160" height="50" as="alternateBounds" />
          </mxGeometry>
        </mxCell>
        <mxCell id="dhCN25a__iqnF_LbxJeF-29" value="email" style="text;html=1;align=center;verticalAlign=middle;resizable=0;points=[];autosize=1;strokeColor=none;fillColor=none;" vertex="1" parent="dhCN25a__iqnF_LbxJeF-24">
          <mxGeometry x="55" y="10" width="50" height="30" as="geometry" />
        </mxCell>
        <mxCell id="dhCN25a__iqnF_LbxJeF-25" value="" style="shape=tableRow;horizontal=0;swimlaneHead=0;swimlaneBody=0;top=0;left=0;strokeColor=inherit;bottom=0;right=0;dropTarget=0;fontStyle=0;fillColor=none;points=[[0,0.5],[1,0.5]];portConstraint=eastwest;startSize=0;collapsible=0;recursiveResize=0;expand=0;" vertex="1" parent="dhCN25a__iqnF_LbxJeF-18">
          <mxGeometry y="210" width="160" height="50" as="geometry" />
        </mxCell>
        <mxCell id="dhCN25a__iqnF_LbxJeF-26" value="" style="swimlane;swimlaneHead=0;swimlaneBody=0;fontStyle=0;connectable=0;strokeColor=inherit;fillColor=none;startSize=0;collapsible=0;recursiveResize=0;expand=0;" vertex="1" parent="dhCN25a__iqnF_LbxJeF-25">
          <mxGeometry width="160" height="50" as="geometry">
            <mxRectangle width="160" height="50" as="alternateBounds" />
          </mxGeometry>
        </mxCell>
        <mxCell id="dhCN25a__iqnF_LbxJeF-30" value="password" style="text;html=1;align=center;verticalAlign=middle;resizable=0;points=[];autosize=1;strokeColor=none;fillColor=none;" vertex="1" parent="dhCN25a__iqnF_LbxJeF-26">
          <mxGeometry x="45" y="10" width="70" height="30" as="geometry" />
        </mxCell>
        <mxCell id="dhCN25a__iqnF_LbxJeF-31" value="Post" style="shape=table;childLayout=tableLayout;startSize=40;collapsible=0;recursiveResize=0;expand=0;" vertex="1" parent="1">
          <mxGeometry x="250" y="80" width="160" height="240" as="geometry" />
        </mxCell>
        <mxCell id="dhCN25a__iqnF_LbxJeF-32" value="" style="shape=tableRow;horizontal=0;swimlaneHead=0;swimlaneBody=0;top=0;left=0;strokeColor=inherit;bottom=0;right=0;dropTarget=0;fontStyle=0;fillColor=none;points=[[0,0.5],[1,0.5]];portConstraint=eastwest;startSize=0;collapsible=0;recursiveResize=0;expand=0;" vertex="1" parent="dhCN25a__iqnF_LbxJeF-31">
          <mxGeometry y="40" width="160" height="50" as="geometry" />
        </mxCell>
        <mxCell id="dhCN25a__iqnF_LbxJeF-33" value="" style="swimlane;swimlaneHead=0;swimlaneBody=0;fontStyle=0;strokeColor=inherit;connectable=0;fillColor=none;startSize=0;collapsible=0;recursiveResize=0;expand=0;" vertex="1" parent="dhCN25a__iqnF_LbxJeF-32">
          <mxGeometry width="160" height="50" as="geometry">
            <mxRectangle width="160" height="50" as="alternateBounds" />
          </mxGeometry>
        </mxCell>
        <mxCell id="dhCN25a__iqnF_LbxJeF-41" value="ID" style="text;html=1;align=center;verticalAlign=middle;resizable=0;points=[];autosize=1;strokeColor=none;fillColor=none;" vertex="1" parent="dhCN25a__iqnF_LbxJeF-33">
          <mxGeometry x="60" y="5" width="40" height="30" as="geometry" />
        </mxCell>
        <mxCell id="dhCN25a__iqnF_LbxJeF-34" value="" style="shape=tableRow;horizontal=0;swimlaneHead=0;swimlaneBody=0;top=0;left=0;strokeColor=inherit;bottom=0;right=0;dropTarget=0;fontStyle=0;fillColor=none;points=[[0,0.5],[1,0.5]];portConstraint=eastwest;startSize=0;collapsible=0;recursiveResize=0;expand=0;" vertex="1" parent="dhCN25a__iqnF_LbxJeF-31">
          <mxGeometry y="90" width="160" height="50" as="geometry" />
        </mxCell>
        <mxCell id="dhCN25a__iqnF_LbxJeF-35" value="" style="swimlane;swimlaneHead=0;swimlaneBody=0;fontStyle=0;connectable=0;strokeColor=inherit;fillColor=none;startSize=0;collapsible=0;recursiveResize=0;expand=0;" vertex="1" parent="dhCN25a__iqnF_LbxJeF-34">
          <mxGeometry width="160" height="50" as="geometry">
            <mxRectangle width="160" height="50" as="alternateBounds" />
          </mxGeometry>
        </mxCell>
        <mxCell id="dhCN25a__iqnF_LbxJeF-42" value="user_id" style="text;html=1;align=center;verticalAlign=middle;resizable=0;points=[];autosize=1;strokeColor=none;fillColor=none;" vertex="1" parent="dhCN25a__iqnF_LbxJeF-35">
          <mxGeometry x="50" y="10" width="60" height="30" as="geometry" />
        </mxCell>
        <mxCell id="dhCN25a__iqnF_LbxJeF-36" value="" style="shape=tableRow;horizontal=0;swimlaneHead=0;swimlaneBody=0;top=0;left=0;strokeColor=inherit;bottom=0;right=0;dropTarget=0;fontStyle=0;fillColor=none;points=[[0,0.5],[1,0.5]];portConstraint=eastwest;startSize=0;collapsible=0;recursiveResize=0;expand=0;" vertex="1" parent="dhCN25a__iqnF_LbxJeF-31">
          <mxGeometry y="140" width="160" height="50" as="geometry" />
        </mxCell>
        <mxCell id="dhCN25a__iqnF_LbxJeF-37" value="" style="swimlane;swimlaneHead=0;swimlaneBody=0;fontStyle=0;connectable=0;strokeColor=inherit;fillColor=none;startSize=0;collapsible=0;recursiveResize=0;expand=0;" vertex="1" parent="dhCN25a__iqnF_LbxJeF-36">
          <mxGeometry width="160" height="50" as="geometry">
            <mxRectangle width="160" height="50" as="alternateBounds" />
          </mxGeometry>
        </mxCell>
        <mxCell id="dhCN25a__iqnF_LbxJeF-43" value="title" style="text;html=1;align=center;verticalAlign=middle;resizable=0;points=[];autosize=1;strokeColor=none;fillColor=none;" vertex="1" parent="dhCN25a__iqnF_LbxJeF-37">
          <mxGeometry x="60" y="10" width="40" height="30" as="geometry" />
        </mxCell>
        <mxCell id="dhCN25a__iqnF_LbxJeF-38" value="" style="shape=tableRow;horizontal=0;swimlaneHead=0;swimlaneBody=0;top=0;left=0;strokeColor=inherit;bottom=0;right=0;dropTarget=0;fontStyle=0;fillColor=none;points=[[0,0.5],[1,0.5]];portConstraint=eastwest;startSize=0;collapsible=0;recursiveResize=0;expand=0;" vertex="1" parent="dhCN25a__iqnF_LbxJeF-31">
          <mxGeometry y="190" width="160" height="50" as="geometry" />
        </mxCell>
        <mxCell id="dhCN25a__iqnF_LbxJeF-39" value="" style="swimlane;swimlaneHead=0;swimlaneBody=0;fontStyle=0;connectable=0;strokeColor=inherit;fillColor=none;startSize=0;collapsible=0;recursiveResize=0;expand=0;" vertex="1" parent="dhCN25a__iqnF_LbxJeF-38">
          <mxGeometry width="160" height="50" as="geometry">
            <mxRectangle width="160" height="50" as="alternateBounds" />
          </mxGeometry>
        </mxCell>
        <mxCell id="dhCN25a__iqnF_LbxJeF-44" value="comment" style="text;html=1;align=center;verticalAlign=middle;resizable=0;points=[];autosize=1;strokeColor=none;fillColor=none;" vertex="1" parent="dhCN25a__iqnF_LbxJeF-39">
          <mxGeometry x="45" y="10" width="70" height="30" as="geometry" />
        </mxCell>
        <mxCell id="dhCN25a__iqnF_LbxJeF-45" value="comment" style="shape=table;childLayout=tableLayout;startSize=40;collapsible=0;recursiveResize=0;expand=0;" vertex="1" parent="1">
          <mxGeometry x="580" y="440" width="160" height="260" as="geometry" />
        </mxCell>
        <mxCell id="dhCN25a__iqnF_LbxJeF-46" value="" style="shape=tableRow;horizontal=0;swimlaneHead=0;swimlaneBody=0;top=0;left=0;strokeColor=inherit;bottom=0;right=0;dropTarget=0;fontStyle=0;fillColor=none;points=[[0,0.5],[1,0.5]];portConstraint=eastwest;startSize=0;collapsible=0;recursiveResize=0;expand=0;" vertex="1" parent="dhCN25a__iqnF_LbxJeF-45">
          <mxGeometry y="40" width="160" height="60" as="geometry" />
        </mxCell>
        <mxCell id="dhCN25a__iqnF_LbxJeF-47" value="" style="swimlane;swimlaneHead=0;swimlaneBody=0;fontStyle=0;strokeColor=inherit;connectable=0;fillColor=none;startSize=0;collapsible=0;recursiveResize=0;expand=0;" vertex="1" parent="dhCN25a__iqnF_LbxJeF-46">
          <mxGeometry width="160" height="60" as="geometry">
            <mxRectangle width="160" height="60" as="alternateBounds" />
          </mxGeometry>
        </mxCell>
        <mxCell id="dhCN25a__iqnF_LbxJeF-48" value="ID" style="text;html=1;align=center;verticalAlign=middle;resizable=0;points=[];autosize=1;strokeColor=none;fillColor=none;" vertex="1" parent="dhCN25a__iqnF_LbxJeF-47">
          <mxGeometry x="60" y="15" width="40" height="30" as="geometry" />
        </mxCell>
        <mxCell id="dhCN25a__iqnF_LbxJeF-49" value="" style="shape=tableRow;horizontal=0;swimlaneHead=0;swimlaneBody=0;top=0;left=0;strokeColor=inherit;bottom=0;right=0;dropTarget=0;fontStyle=0;fillColor=none;points=[[0,0.5],[1,0.5]];portConstraint=eastwest;startSize=0;collapsible=0;recursiveResize=0;expand=0;" vertex="1" parent="dhCN25a__iqnF_LbxJeF-45">
          <mxGeometry y="100" width="160" height="60" as="geometry" />
        </mxCell>
        <mxCell id="dhCN25a__iqnF_LbxJeF-50" value="" style="swimlane;swimlaneHead=0;swimlaneBody=0;fontStyle=0;connectable=0;strokeColor=inherit;fillColor=none;startSize=0;collapsible=0;recursiveResize=0;expand=0;" vertex="1" parent="dhCN25a__iqnF_LbxJeF-49">
          <mxGeometry width="160" height="60" as="geometry">
            <mxRectangle width="160" height="60" as="alternateBounds" />
          </mxGeometry>
        </mxCell>
        <mxCell id="dhCN25a__iqnF_LbxJeF-51" value="user_id" style="text;html=1;align=center;verticalAlign=middle;resizable=0;points=[];autosize=1;strokeColor=none;fillColor=none;" vertex="1" parent="dhCN25a__iqnF_LbxJeF-50">
          <mxGeometry x="50" y="15" width="60" height="30" as="geometry" />
        </mxCell>
        <mxCell id="dhCN25a__iqnF_LbxJeF-52" value="" style="shape=tableRow;horizontal=0;swimlaneHead=0;swimlaneBody=0;top=0;left=0;strokeColor=inherit;bottom=0;right=0;dropTarget=0;fontStyle=0;fillColor=none;points=[[0,0.5],[1,0.5]];portConstraint=eastwest;startSize=0;collapsible=0;recursiveResize=0;expand=0;" vertex="1" parent="dhCN25a__iqnF_LbxJeF-45">
          <mxGeometry y="160" width="160" height="50" as="geometry" />
        </mxCell>
        <mxCell id="dhCN25a__iqnF_LbxJeF-53" value="" style="swimlane;swimlaneHead=0;swimlaneBody=0;fontStyle=0;connectable=0;strokeColor=inherit;fillColor=none;startSize=0;collapsible=0;recursiveResize=0;expand=0;" vertex="1" parent="dhCN25a__iqnF_LbxJeF-52">
          <mxGeometry width="160" height="50" as="geometry">
            <mxRectangle width="160" height="50" as="alternateBounds" />
          </mxGeometry>
        </mxCell>
        <mxCell id="dhCN25a__iqnF_LbxJeF-54" value="post_id" style="text;html=1;align=center;verticalAlign=middle;resizable=0;points=[];autosize=1;strokeColor=none;fillColor=none;" vertex="1" parent="dhCN25a__iqnF_LbxJeF-53">
          <mxGeometry x="50" y="10" width="60" height="30" as="geometry" />
        </mxCell>
        <mxCell id="dhCN25a__iqnF_LbxJeF-55" value="" style="shape=tableRow;horizontal=0;swimlaneHead=0;swimlaneBody=0;top=0;left=0;strokeColor=inherit;bottom=0;right=0;dropTarget=0;fontStyle=0;fillColor=none;points=[[0,0.5],[1,0.5]];portConstraint=eastwest;startSize=0;collapsible=0;recursiveResize=0;expand=0;" vertex="1" parent="dhCN25a__iqnF_LbxJeF-45">
          <mxGeometry y="210" width="160" height="50" as="geometry" />
        </mxCell>
        <mxCell id="dhCN25a__iqnF_LbxJeF-56" value="" style="swimlane;swimlaneHead=0;swimlaneBody=0;fontStyle=0;connectable=0;strokeColor=inherit;fillColor=none;startSize=0;collapsible=0;recursiveResize=0;expand=0;" vertex="1" parent="dhCN25a__iqnF_LbxJeF-55">
          <mxGeometry width="160" height="50" as="geometry">
            <mxRectangle width="160" height="50" as="alternateBounds" />
          </mxGeometry>
        </mxCell>
        <mxCell id="dhCN25a__iqnF_LbxJeF-57" value="comment" style="text;html=1;align=center;verticalAlign=middle;resizable=0;points=[];autosize=1;strokeColor=none;fillColor=none;" vertex="1" parent="dhCN25a__iqnF_LbxJeF-56">
          <mxGeometry x="45" y="10" width="70" height="30" as="geometry" />
        </mxCell>
        <mxCell id="dhCN25a__iqnF_LbxJeF-58" value="Like" style="shape=table;childLayout=tableLayout;startSize=40;collapsible=0;recursiveResize=0;expand=0;" vertex="1" parent="1">
          <mxGeometry x="580" y="95" width="160" height="210" as="geometry" />
        </mxCell>
        <mxCell id="dhCN25a__iqnF_LbxJeF-59" value="" style="shape=tableRow;horizontal=0;swimlaneHead=0;swimlaneBody=0;top=0;left=0;strokeColor=inherit;bottom=0;right=0;dropTarget=0;fontStyle=0;fillColor=none;points=[[0,0.5],[1,0.5]];portConstraint=eastwest;startSize=0;collapsible=0;recursiveResize=0;expand=0;" vertex="1" parent="dhCN25a__iqnF_LbxJeF-58">
          <mxGeometry y="40" width="160" height="60" as="geometry" />
        </mxCell>
        <mxCell id="dhCN25a__iqnF_LbxJeF-60" value="" style="swimlane;swimlaneHead=0;swimlaneBody=0;fontStyle=0;strokeColor=inherit;connectable=0;fillColor=none;startSize=0;collapsible=0;recursiveResize=0;expand=0;" vertex="1" parent="dhCN25a__iqnF_LbxJeF-59">
          <mxGeometry width="160" height="60" as="geometry">
            <mxRectangle width="160" height="60" as="alternateBounds" />
          </mxGeometry>
        </mxCell>
        <mxCell id="dhCN25a__iqnF_LbxJeF-61" value="ID" style="text;html=1;align=center;verticalAlign=middle;resizable=0;points=[];autosize=1;strokeColor=none;fillColor=none;" vertex="1" parent="dhCN25a__iqnF_LbxJeF-60">
          <mxGeometry x="60" y="15" width="40" height="30" as="geometry" />
        </mxCell>
        <mxCell id="dhCN25a__iqnF_LbxJeF-62" value="" style="shape=tableRow;horizontal=0;swimlaneHead=0;swimlaneBody=0;top=0;left=0;strokeColor=inherit;bottom=0;right=0;dropTarget=0;fontStyle=0;fillColor=none;points=[[0,0.5],[1,0.5]];portConstraint=eastwest;startSize=0;collapsible=0;recursiveResize=0;expand=0;" vertex="1" parent="dhCN25a__iqnF_LbxJeF-58">
          <mxGeometry y="100" width="160" height="60" as="geometry" />
        </mxCell>
        <mxCell id="dhCN25a__iqnF_LbxJeF-63" value="" style="swimlane;swimlaneHead=0;swimlaneBody=0;fontStyle=0;connectable=0;strokeColor=inherit;fillColor=none;startSize=0;collapsible=0;recursiveResize=0;expand=0;" vertex="1" parent="dhCN25a__iqnF_LbxJeF-62">
          <mxGeometry width="160" height="60" as="geometry">
            <mxRectangle width="160" height="60" as="alternateBounds" />
          </mxGeometry>
        </mxCell>
        <mxCell id="dhCN25a__iqnF_LbxJeF-64" value="user_id" style="text;html=1;align=center;verticalAlign=middle;resizable=0;points=[];autosize=1;strokeColor=none;fillColor=none;" vertex="1" parent="dhCN25a__iqnF_LbxJeF-63">
          <mxGeometry x="50" y="15" width="60" height="30" as="geometry" />
        </mxCell>
        <mxCell id="dhCN25a__iqnF_LbxJeF-65" value="" style="shape=tableRow;horizontal=0;swimlaneHead=0;swimlaneBody=0;top=0;left=0;strokeColor=inherit;bottom=0;right=0;dropTarget=0;fontStyle=0;fillColor=none;points=[[0,0.5],[1,0.5]];portConstraint=eastwest;startSize=0;collapsible=0;recursiveResize=0;expand=0;" vertex="1" parent="dhCN25a__iqnF_LbxJeF-58">
          <mxGeometry y="160" width="160" height="50" as="geometry" />
        </mxCell>
        <mxCell id="dhCN25a__iqnF_LbxJeF-66" value="" style="swimlane;swimlaneHead=0;swimlaneBody=0;fontStyle=0;connectable=0;strokeColor=inherit;fillColor=none;startSize=0;collapsible=0;recursiveResize=0;expand=0;" vertex="1" parent="dhCN25a__iqnF_LbxJeF-65">
          <mxGeometry width="160" height="50" as="geometry">
            <mxRectangle width="160" height="50" as="alternateBounds" />
          </mxGeometry>
        </mxCell>
        <mxCell id="dhCN25a__iqnF_LbxJeF-67" value="post_id" style="text;html=1;align=center;verticalAlign=middle;resizable=0;points=[];autosize=1;strokeColor=none;fillColor=none;" vertex="1" parent="dhCN25a__iqnF_LbxJeF-66">
          <mxGeometry x="50" y="10" width="60" height="30" as="geometry" />
        </mxCell>
        <mxCell id="dhCN25a__iqnF_LbxJeF-71" value="" style="edgeStyle=entityRelationEdgeStyle;endArrow=ERzeroToMany;startArrow=ERone;endFill=1;startFill=0;exitX=1;exitY=0.25;exitDx=0;exitDy=0;entryX=0;entryY=0.75;entryDx=0;entryDy=0;" edge="1" parent="1" target="dhCN25a__iqnF_LbxJeF-45">
          <mxGeometry width="100" height="100" relative="1" as="geometry">
            <mxPoint x="415" y="160" as="sourcePoint" />
            <mxPoint x="140" y="640" as="targetPoint" />
            <Array as="points">
              <mxPoint x="635" y="205" />
            </Array>
          </mxGeometry>
        </mxCell>
        <mxCell id="dhCN25a__iqnF_LbxJeF-72" value="" style="edgeStyle=entityRelationEdgeStyle;endArrow=ERzeroToMany;startArrow=ERone;endFill=1;startFill=0;entryX=-0.025;entryY=0.36;entryDx=0;entryDy=0;entryPerimeter=0;" edge="1" parent="1" target="dhCN25a__iqnF_LbxJeF-65">
          <mxGeometry width="100" height="100" relative="1" as="geometry">
            <mxPoint x="420" y="140" as="sourcePoint" />
            <mxPoint x="650" y="620" as="targetPoint" />
            <Array as="points">
              <mxPoint x="805" y="165" />
            </Array>
          </mxGeometry>
        </mxCell>
      </root>
    </mxGraphModel>
  </diagram>
</mxfile>
